<mxfile host="Electron" modified="2024-01-02T18:34:58.242Z" agent="Mozilla/5.0 (Macintosh; Intel Mac OS X 10_15_7) AppleWebKit/537.36 (KHTML, like Gecko) draw.io/22.1.16 Chrome/120.0.6099.109 Electron/28.1.0 Safari/537.36" version="22.1.16" etag="REQ3ew_KKlVpLnmrhjme" type="device">
  <diagram name="Page-1" id="e3WJStjDO_UUJc7tsRj-">
    <mxGraphModel dx="1242" dy="854" grid="0" gridSize="10" guides="1" tooltips="1" connect="1" arrows="1" fold="1" page="0" pageScale="1" pageWidth="1169" pageHeight="827" math="0" shadow="0">
      <root>
        <mxCell id="0" />
        <mxCell id="1" parent="0" />
        <mxCell id="V2JTbt2djYY7QQhsiSOy-41" style="edgeStyle=orthogonalEdgeStyle;rounded=0;orthogonalLoop=1;jettySize=auto;html=1;entryX=-0.014;entryY=0.167;entryDx=0;entryDy=0;entryPerimeter=0;" parent="1" source="V2JTbt2djYY7QQhsiSOy-20" target="V2JTbt2djYY7QQhsiSOy-36" edge="1">
          <mxGeometry relative="1" as="geometry" />
        </mxCell>
        <mxCell id="V2JTbt2djYY7QQhsiSOy-43" value="upsert" style="edgeLabel;html=1;align=center;verticalAlign=middle;resizable=0;points=[];" parent="V2JTbt2djYY7QQhsiSOy-41" vertex="1" connectable="0">
          <mxGeometry x="-0.1385" y="1" relative="1" as="geometry">
            <mxPoint y="-1" as="offset" />
          </mxGeometry>
        </mxCell>
        <mxCell id="V2JTbt2djYY7QQhsiSOy-20" value="" style="rounded=0;whiteSpace=wrap;html=1;fillColor=#5123E7;strokeColor=#b85450;glass=0;" parent="1" vertex="1">
          <mxGeometry x="575" y="404" width="240" height="90" as="geometry" />
        </mxCell>
        <mxCell id="V2JTbt2djYY7QQhsiSOy-3" value="Customers" style="swimlane;fontStyle=0;childLayout=stackLayout;horizontal=1;startSize=30;horizontalStack=0;resizeParent=1;resizeParentMax=0;resizeLast=0;collapsible=1;marginBottom=0;whiteSpace=wrap;html=1;fillColor=#a6e132;strokeColor=#6c8ebf;glass=0;fontSize=14;" parent="1" vertex="1">
          <mxGeometry x="371" y="270" width="140" height="120" as="geometry" />
        </mxCell>
        <mxCell id="V2JTbt2djYY7QQhsiSOy-4" value="customer 1" style="text;strokeColor=none;fillColor=none;align=left;verticalAlign=middle;spacingLeft=4;spacingRight=4;overflow=hidden;points=[[0,0.5],[1,0.5]];portConstraint=eastwest;rotatable=0;whiteSpace=wrap;html=1;" parent="V2JTbt2djYY7QQhsiSOy-3" vertex="1">
          <mxGeometry y="30" width="140" height="30" as="geometry" />
        </mxCell>
        <mxCell id="V2JTbt2djYY7QQhsiSOy-5" value="customer 2" style="text;strokeColor=none;fillColor=none;align=left;verticalAlign=middle;spacingLeft=4;spacingRight=4;overflow=hidden;points=[[0,0.5],[1,0.5]];portConstraint=eastwest;rotatable=0;whiteSpace=wrap;html=1;" parent="V2JTbt2djYY7QQhsiSOy-3" vertex="1">
          <mxGeometry y="60" width="140" height="30" as="geometry" />
        </mxCell>
        <mxCell id="V2JTbt2djYY7QQhsiSOy-6" value="customer N" style="text;strokeColor=none;fillColor=none;align=left;verticalAlign=middle;spacingLeft=4;spacingRight=4;overflow=hidden;points=[[0,0.5],[1,0.5]];portConstraint=eastwest;rotatable=0;whiteSpace=wrap;html=1;" parent="V2JTbt2djYY7QQhsiSOy-3" vertex="1">
          <mxGeometry y="90" width="140" height="30" as="geometry" />
        </mxCell>
        <mxCell id="V2JTbt2djYY7QQhsiSOy-7" value="Orders" style="swimlane;fontStyle=0;childLayout=stackLayout;horizontal=1;startSize=30;horizontalStack=0;resizeParent=1;resizeParentMax=0;resizeLast=0;collapsible=1;marginBottom=0;whiteSpace=wrap;html=1;fillColor=#A5E031;strokeColor=#6c8ebf;glass=0;fontSize=14;" parent="1" vertex="1">
          <mxGeometry x="371" y="470" width="140" height="120" as="geometry">
            <mxRectangle x="400" y="470" width="80" height="30" as="alternateBounds" />
          </mxGeometry>
        </mxCell>
        <mxCell id="V2JTbt2djYY7QQhsiSOy-8" value="order 1" style="text;strokeColor=none;fillColor=none;align=left;verticalAlign=middle;spacingLeft=4;spacingRight=4;overflow=hidden;points=[[0,0.5],[1,0.5]];portConstraint=eastwest;rotatable=0;whiteSpace=wrap;html=1;" parent="V2JTbt2djYY7QQhsiSOy-7" vertex="1">
          <mxGeometry y="30" width="140" height="30" as="geometry" />
        </mxCell>
        <mxCell id="V2JTbt2djYY7QQhsiSOy-9" value="order 2" style="text;strokeColor=none;fillColor=none;align=left;verticalAlign=middle;spacingLeft=4;spacingRight=4;overflow=hidden;points=[[0,0.5],[1,0.5]];portConstraint=eastwest;rotatable=0;whiteSpace=wrap;html=1;" parent="V2JTbt2djYY7QQhsiSOy-7" vertex="1">
          <mxGeometry y="60" width="140" height="30" as="geometry" />
        </mxCell>
        <mxCell id="V2JTbt2djYY7QQhsiSOy-10" value="order N" style="text;strokeColor=none;fillColor=none;align=left;verticalAlign=middle;spacingLeft=4;spacingRight=4;overflow=hidden;points=[[0,0.5],[1,0.5]];portConstraint=eastwest;rotatable=0;whiteSpace=wrap;html=1;" parent="V2JTbt2djYY7QQhsiSOy-7" vertex="1">
          <mxGeometry y="90" width="140" height="30" as="geometry" />
        </mxCell>
        <mxCell id="V2JTbt2djYY7QQhsiSOy-14" style="edgeStyle=orthogonalEdgeStyle;rounded=0;orthogonalLoop=1;jettySize=auto;html=1;exitX=1;exitY=0;exitDx=0;exitDy=48.75;exitPerimeter=0;" parent="1" source="2" edge="1">
          <mxGeometry relative="1" as="geometry">
            <mxPoint x="185" y="337" as="targetPoint" />
            <mxPoint x="135" y="337" as="sourcePoint" />
          </mxGeometry>
        </mxCell>
        <mxCell id="V2JTbt2djYY7QQhsiSOy-12" value="&amp;lt;&amp;lt;MySQL Database&lt;span style=&quot;background-color: rgb(255, 255, 255);&quot;&gt;&amp;gt;&amp;gt;&lt;/span&gt;" style="text;html=1;strokeColor=none;fillColor=none;align=center;verticalAlign=middle;whiteSpace=wrap;rounded=0;" parent="1" vertex="1">
          <mxGeometry x="2" y="365" width="200" height="30" as="geometry" />
        </mxCell>
        <mxCell id="V2JTbt2djYY7QQhsiSOy-16" style="edgeStyle=orthogonalEdgeStyle;rounded=0;orthogonalLoop=1;jettySize=auto;html=1;" parent="1" source="V2JTbt2djYY7QQhsiSOy-15" edge="1">
          <mxGeometry relative="1" as="geometry">
            <mxPoint x="186" y="545" as="targetPoint" />
            <Array as="points">
              <mxPoint x="186" y="545" />
              <mxPoint x="186" y="545" />
            </Array>
          </mxGeometry>
        </mxCell>
        <mxCell id="V2JTbt2djYY7QQhsiSOy-15" value="" style="shape=cylinder3;whiteSpace=wrap;html=1;boundedLbl=1;backgroundOutline=1;size=15;rotation=90;fillColor=#76608a;fontColor=#ffffff;strokeColor=#432D57;" parent="1" vertex="1">
          <mxGeometry x="66.75" y="493.75" width="60" height="102.5" as="geometry" />
        </mxCell>
        <mxCell id="V2JTbt2djYY7QQhsiSOy-17" value="Orders" style="text;html=1;strokeColor=none;fillColor=none;align=center;verticalAlign=middle;whiteSpace=wrap;rounded=0;fontColor=#FFFFFF;" parent="1" vertex="1">
          <mxGeometry x="54" y="530" width="60" height="30" as="geometry" />
        </mxCell>
        <mxCell id="V2JTbt2djYY7QQhsiSOy-18" value="SQL: Lookup Join" style="rounded=0;whiteSpace=wrap;html=1;" parent="1" vertex="1">
          <mxGeometry x="590" y="418" width="105" height="60" as="geometry" />
        </mxCell>
        <mxCell id="V2JTbt2djYY7QQhsiSOy-19" value="SQL: Group By" style="rounded=0;whiteSpace=wrap;html=1;" parent="1" vertex="1">
          <mxGeometry x="705" y="418" width="95" height="60" as="geometry" />
        </mxCell>
        <mxCell id="V2JTbt2djYY7QQhsiSOy-21" value="&amp;lt;&amp;lt;Flink Job&amp;gt;&amp;gt;" style="text;html=1;strokeColor=none;fillColor=none;align=center;verticalAlign=middle;whiteSpace=wrap;rounded=0;" parent="1" vertex="1">
          <mxGeometry x="635" y="494" width="120" height="30" as="geometry" />
        </mxCell>
        <mxCell id="V2JTbt2djYY7QQhsiSOy-22" value="Aggregation" style="text;html=1;strokeColor=#3700CC;fillColor=#6a00ff;align=center;verticalAlign=middle;whiteSpace=wrap;rounded=0;fontSize=25;fontStyle=1;fontFamily=Comic Sans MS;fontColor=#ffffff;" parent="1" vertex="1">
          <mxGeometry x="659" y="219" width="167" height="34.5" as="geometry" />
        </mxCell>
        <mxCell id="V2JTbt2djYY7QQhsiSOy-23" value="Ingestion" style="text;html=1;strokeColor=#3700CC;fillColor=#6a00ff;align=center;verticalAlign=middle;whiteSpace=wrap;rounded=0;fontSize=25;fontStyle=1;fontFamily=Comic Sans MS;fontColor=#ffffff;" parent="1" vertex="1">
          <mxGeometry x="177" y="214" width="151" height="36" as="geometry" />
        </mxCell>
        <mxCell id="V2JTbt2djYY7QQhsiSOy-28" style="edgeStyle=orthogonalEdgeStyle;rounded=0;orthogonalLoop=1;jettySize=auto;html=1;entryX=-0.029;entryY=0.167;entryDx=0;entryDy=0;entryPerimeter=0;" parent="1" source="V2JTbt2djYY7QQhsiSOy-24" target="V2JTbt2djYY7QQhsiSOy-5" edge="1">
          <mxGeometry relative="1" as="geometry" />
        </mxCell>
        <mxCell id="V2JTbt2djYY7QQhsiSOy-45" value="upsert" style="edgeLabel;html=1;align=center;verticalAlign=middle;resizable=0;points=[];" parent="V2JTbt2djYY7QQhsiSOy-28" vertex="1" connectable="0">
          <mxGeometry x="-0.3631" y="-1" relative="1" as="geometry">
            <mxPoint x="9" y="-2" as="offset" />
          </mxGeometry>
        </mxCell>
        <mxCell id="V2JTbt2djYY7QQhsiSOy-24" value="SQL: CDC Customers" style="rounded=0;whiteSpace=wrap;html=1;fillColor=#5123E7;strokeColor=#b85450;shadow=0;glass=0;fontColor=#E6E6E6;fontSize=14;" parent="1" vertex="1">
          <mxGeometry x="186" y="305" width="120" height="60" as="geometry" />
        </mxCell>
        <mxCell id="V2JTbt2djYY7QQhsiSOy-29" style="edgeStyle=orthogonalEdgeStyle;rounded=0;orthogonalLoop=1;jettySize=auto;html=1;entryX=0;entryY=0.5;entryDx=0;entryDy=0;" parent="1" source="V2JTbt2djYY7QQhsiSOy-25" target="V2JTbt2djYY7QQhsiSOy-9" edge="1">
          <mxGeometry relative="1" as="geometry" />
        </mxCell>
        <mxCell id="V2JTbt2djYY7QQhsiSOy-44" value="append" style="edgeLabel;html=1;align=center;verticalAlign=middle;resizable=0;points=[];" parent="V2JTbt2djYY7QQhsiSOy-29" vertex="1" connectable="0">
          <mxGeometry y="1" relative="1" as="geometry">
            <mxPoint as="offset" />
          </mxGeometry>
        </mxCell>
        <mxCell id="V2JTbt2djYY7QQhsiSOy-25" value="SQL: Insert &lt;br&gt;Orders" style="rounded=0;whiteSpace=wrap;html=1;fillColor=#5123E7;strokeColor=#b85450;glass=0;fontColor=#E6E6E6;fontSize=14;" parent="1" vertex="1">
          <mxGeometry x="186" y="515" width="120" height="60" as="geometry" />
        </mxCell>
        <mxCell id="V2JTbt2djYY7QQhsiSOy-26" value="&amp;lt;&amp;lt;Flink Job&amp;gt;&amp;gt;" style="text;html=1;strokeColor=none;fillColor=none;align=center;verticalAlign=middle;whiteSpace=wrap;rounded=0;" parent="1" vertex="1">
          <mxGeometry x="186" y="575" width="120" height="30" as="geometry" />
        </mxCell>
        <mxCell id="V2JTbt2djYY7QQhsiSOy-27" value="&amp;lt;&amp;lt;Flink Job&amp;gt;&amp;gt;" style="text;html=1;strokeColor=none;fillColor=none;align=center;verticalAlign=middle;whiteSpace=wrap;rounded=0;" parent="1" vertex="1">
          <mxGeometry x="186" y="365" width="120" height="30" as="geometry" />
        </mxCell>
        <mxCell id="V2JTbt2djYY7QQhsiSOy-31" value="&amp;lt;&amp;lt;Paimon:&lt;br&gt;&amp;nbsp;Primary-key Table&amp;gt;&amp;gt;" style="text;html=1;strokeColor=none;fillColor=none;align=center;verticalAlign=middle;whiteSpace=wrap;rounded=0;" parent="1" vertex="1">
          <mxGeometry x="386" y="399" width="110" height="30" as="geometry" />
        </mxCell>
        <mxCell id="V2JTbt2djYY7QQhsiSOy-32" value="&amp;lt;&amp;lt;Paimon:&lt;br&gt;&amp;nbsp;Append-only Table&amp;gt;&amp;gt;" style="text;html=1;strokeColor=none;fillColor=none;align=center;verticalAlign=middle;whiteSpace=wrap;rounded=0;" parent="1" vertex="1">
          <mxGeometry x="380.62" y="601" width="110" height="30" as="geometry" />
        </mxCell>
        <mxCell id="V2JTbt2djYY7QQhsiSOy-34" value="sales_country" style="swimlane;fontStyle=0;childLayout=stackLayout;horizontal=1;startSize=30;horizontalStack=0;resizeParent=1;resizeParentMax=0;resizeLast=0;collapsible=1;marginBottom=0;whiteSpace=wrap;html=1;fillColor=#A5E031;strokeColor=#6c8ebf;shadow=0;glass=1;fontSize=14;" parent="1" vertex="1">
          <mxGeometry x="869" y="384" width="106" height="120" as="geometry" />
        </mxCell>
        <mxCell id="V2JTbt2djYY7QQhsiSOy-35" value="sales 1" style="text;strokeColor=none;fillColor=none;align=left;verticalAlign=middle;spacingLeft=4;spacingRight=4;overflow=hidden;points=[[0,0.5],[1,0.5]];portConstraint=eastwest;rotatable=0;whiteSpace=wrap;html=1;" parent="V2JTbt2djYY7QQhsiSOy-34" vertex="1">
          <mxGeometry y="30" width="106" height="30" as="geometry" />
        </mxCell>
        <mxCell id="V2JTbt2djYY7QQhsiSOy-36" value="sales 2" style="text;strokeColor=none;fillColor=none;align=left;verticalAlign=middle;spacingLeft=4;spacingRight=4;overflow=hidden;points=[[0,0.5],[1,0.5]];portConstraint=eastwest;rotatable=0;whiteSpace=wrap;html=1;" parent="V2JTbt2djYY7QQhsiSOy-34" vertex="1">
          <mxGeometry y="60" width="106" height="30" as="geometry" />
        </mxCell>
        <mxCell id="V2JTbt2djYY7QQhsiSOy-37" value="sales N" style="text;strokeColor=none;fillColor=none;align=left;verticalAlign=middle;spacingLeft=4;spacingRight=4;overflow=hidden;points=[[0,0.5],[1,0.5]];portConstraint=eastwest;rotatable=0;whiteSpace=wrap;html=1;" parent="V2JTbt2djYY7QQhsiSOy-34" vertex="1">
          <mxGeometry y="90" width="106" height="30" as="geometry" />
        </mxCell>
        <mxCell id="V2JTbt2djYY7QQhsiSOy-38" style="edgeStyle=orthogonalEdgeStyle;rounded=0;orthogonalLoop=1;jettySize=auto;html=1;entryX=0;entryY=0.25;entryDx=0;entryDy=0;" parent="1" source="V2JTbt2djYY7QQhsiSOy-5" target="V2JTbt2djYY7QQhsiSOy-20" edge="1">
          <mxGeometry relative="1" as="geometry" />
        </mxCell>
        <mxCell id="V2JTbt2djYY7QQhsiSOy-47" value="lookup&lt;br&gt;&amp;nbsp;customer" style="edgeLabel;html=1;align=center;verticalAlign=middle;resizable=0;points=[];" parent="V2JTbt2djYY7QQhsiSOy-38" vertex="1" connectable="0">
          <mxGeometry x="-0.4723" relative="1" as="geometry">
            <mxPoint x="5" y="29" as="offset" />
          </mxGeometry>
        </mxCell>
        <mxCell id="V2JTbt2djYY7QQhsiSOy-39" style="edgeStyle=orthogonalEdgeStyle;rounded=0;orthogonalLoop=1;jettySize=auto;html=1;entryX=0;entryY=0.75;entryDx=0;entryDy=0;" parent="1" source="V2JTbt2djYY7QQhsiSOy-9" target="V2JTbt2djYY7QQhsiSOy-20" edge="1">
          <mxGeometry relative="1" as="geometry" />
        </mxCell>
        <mxCell id="V2JTbt2djYY7QQhsiSOy-48" value="new order" style="edgeLabel;html=1;align=center;verticalAlign=middle;resizable=0;points=[];" parent="V2JTbt2djYY7QQhsiSOy-39" vertex="1" connectable="0">
          <mxGeometry x="-0.4817" y="3" relative="1" as="geometry">
            <mxPoint x="11" y="-26" as="offset" />
          </mxGeometry>
        </mxCell>
        <mxCell id="V2JTbt2djYY7QQhsiSOy-42" value="&amp;lt;&amp;lt;Paimon:&lt;br&gt;&amp;nbsp;Primary-key Table&amp;gt;&amp;gt;" style="text;html=1;strokeColor=none;fillColor=none;align=center;verticalAlign=middle;whiteSpace=wrap;rounded=0;" parent="1" vertex="1">
          <mxGeometry x="869" y="515" width="110" height="30" as="geometry" />
        </mxCell>
        <mxCell id="V2JTbt2djYY7QQhsiSOy-46" value="" style="endArrow=none;dashed=1;html=1;rounded=0;" parent="1" edge="1">
          <mxGeometry width="50" height="50" relative="1" as="geometry">
            <mxPoint x="525" y="640" as="sourcePoint" />
            <mxPoint x="525" y="220" as="targetPoint" />
          </mxGeometry>
        </mxCell>
        <mxCell id="TIGMBesdW2731F_ledF7-1" value="Show Report&lt;br style=&quot;font-size: 14px;&quot;&gt;(Paimon API)" style="rounded=0;whiteSpace=wrap;html=1;fillColor=#6AD9EE;strokeColor=#82b366;glass=0;shadow=0;fontSize=14;" parent="1" vertex="1">
          <mxGeometry x="1032" y="420" width="120" height="60" as="geometry" />
        </mxCell>
        <mxCell id="TIGMBesdW2731F_ledF7-2" style="edgeStyle=orthogonalEdgeStyle;rounded=0;orthogonalLoop=1;jettySize=auto;html=1;entryX=0;entryY=0.5;entryDx=0;entryDy=0;" parent="1" source="V2JTbt2djYY7QQhsiSOy-36" target="TIGMBesdW2731F_ledF7-1" edge="1">
          <mxGeometry relative="1" as="geometry">
            <mxPoint x="1021" y="450" as="targetPoint" />
            <Array as="points">
              <mxPoint x="1028" y="450" />
            </Array>
          </mxGeometry>
        </mxCell>
        <mxCell id="TIGMBesdW2731F_ledF7-4" value="stream" style="edgeLabel;html=1;align=center;verticalAlign=middle;resizable=0;points=[];labelBorderColor=none;" parent="TIGMBesdW2731F_ledF7-2" vertex="1" connectable="0">
          <mxGeometry y="2" relative="1" as="geometry">
            <mxPoint x="-4" as="offset" />
          </mxGeometry>
        </mxCell>
        <mxCell id="TIGMBesdW2731F_ledF7-3" value="&amp;lt;&amp;lt;JVM App&amp;gt;&amp;gt;" style="text;html=1;strokeColor=none;fillColor=none;align=center;verticalAlign=middle;whiteSpace=wrap;rounded=0;" parent="1" vertex="1">
          <mxGeometry x="1042" y="478" width="110" height="30" as="geometry" />
        </mxCell>
        <mxCell id="NbqnLF5yHG1nuFdbiPHI-1" value="" style="endArrow=none;dashed=1;html=1;rounded=0;" parent="1" edge="1">
          <mxGeometry width="50" height="50" relative="1" as="geometry">
            <mxPoint x="1001" y="640" as="sourcePoint" />
            <mxPoint x="1001" y="220" as="targetPoint" />
          </mxGeometry>
        </mxCell>
        <mxCell id="NbqnLF5yHG1nuFdbiPHI-2" value="Visualization" style="text;html=1;strokeColor=#3700CC;fillColor=#6a00ff;align=center;verticalAlign=middle;whiteSpace=wrap;rounded=0;fontSize=23;fontStyle=1;fontFamily=Comic Sans MS;fontColor=#ffffff;" parent="1" vertex="1">
          <mxGeometry x="1018.5" y="215" width="157" height="35.25" as="geometry" />
        </mxCell>
        <mxCell id="2" value="Customers" style="shape=cylinder3;whiteSpace=wrap;html=1;boundedLbl=1;backgroundOutline=1;size=15;fillColor=#647687;fontColor=#ffffff;strokeColor=#314354;shadow=0;" parent="1" vertex="1">
          <mxGeometry x="61" y="289" width="70" height="75" as="geometry" />
        </mxCell>
        <mxCell id="8" value="" style="shape=flexArrow;endArrow=classic;startArrow=classic;html=1;fillColor=#1ba1e2;strokeColor=#006EAF;" parent="1" edge="1">
          <mxGeometry width="100" height="100" relative="1" as="geometry">
            <mxPoint x="186" y="675" as="sourcePoint" />
            <mxPoint x="1002" y="675" as="targetPoint" />
          </mxGeometry>
        </mxCell>
        <mxCell id="9" value="Streamhouse" style="text;html=1;strokeColor=#3700CC;fillColor=#6a00ff;align=center;verticalAlign=middle;whiteSpace=wrap;rounded=0;fontSize=28;fontFamily=Comic Sans MS;fontColor=#ffffff;" parent="1" vertex="1">
          <mxGeometry x="507" y="697" width="170" height="36" as="geometry" />
        </mxCell>
        <mxCell id="12" value="&amp;lt;&amp;lt;Datagen in DEV&lt;span style=&quot;background-color: rgb(255, 255, 255);&quot;&gt;&amp;gt;&amp;gt;&lt;/span&gt;" style="text;html=1;strokeColor=none;fillColor=none;align=center;verticalAlign=middle;whiteSpace=wrap;rounded=0;" parent="1" vertex="1">
          <mxGeometry x="-0.010000000000001563" y="575" width="200" height="30" as="geometry" />
        </mxCell>
        <mxCell id="14" value="&lt;span style=&quot;border-color: var(--border-color); color: rgb(0, 0, 0); font-family: Helvetica; font-style: normal; font-variant-ligatures: normal; font-variant-caps: normal; font-weight: 400; letter-spacing: normal; orphans: 2; text-align: center; text-indent: 0px; text-transform: none; widows: 2; word-spacing: 0px; -webkit-text-stroke-width: 0px; background-color: rgb(251, 251, 251); text-decoration-thickness: initial; text-decoration-style: initial; text-decoration-color: initial; font-size: 12px;&quot;&gt;or Kinesis Stream&lt;/span&gt;&lt;br style=&quot;border-color: var(--border-color); color: rgb(0, 0, 0); font-family: Helvetica; font-style: normal; font-variant-ligatures: normal; font-variant-caps: normal; font-weight: 400; letter-spacing: normal; orphans: 2; text-align: center; text-indent: 0px; text-transform: none; widows: 2; word-spacing: 0px; -webkit-text-stroke-width: 0px; background-color: rgb(251, 251, 251); text-decoration-thickness: initial; text-decoration-style: initial; text-decoration-color: initial; font-size: 12px;&quot;&gt;&lt;span style=&quot;border-color: var(--border-color); color: rgb(0, 0, 0); font-family: Helvetica; font-style: normal; font-variant-ligatures: normal; font-variant-caps: normal; font-weight: 400; letter-spacing: normal; orphans: 2; text-align: center; text-indent: 0px; text-transform: none; widows: 2; word-spacing: 0px; -webkit-text-stroke-width: 0px; background-color: rgb(251, 251, 251); text-decoration-thickness: initial; text-decoration-style: initial; text-decoration-color: initial; font-size: 12px;&quot;&gt;or&amp;nbsp;Kafka Topic in PROD&lt;/span&gt;" style="text;whiteSpace=wrap;html=1;fontSize=23;fontColor=#E6E6E6;" parent="1" vertex="1">
          <mxGeometry x="61" y="596.25" width="130" height="80" as="geometry" />
        </mxCell>
        <mxCell id="15" value="" style="shape=image;verticalLabelPosition=bottom;labelBackgroundColor=default;verticalAlign=top;aspect=fixed;imageAspect=0;image=https://paimon.apache.org/docs/master/paimon_black.svg;clipPath=inset(0% 68% 0% 2%);" parent="1" vertex="1">
          <mxGeometry x="380.62" y="160" width="115.38" height="100" as="geometry" />
        </mxCell>
        <mxCell id="16" value="" style="shape=image;verticalLabelPosition=bottom;labelBackgroundColor=default;verticalAlign=top;aspect=fixed;imageAspect=0;image=https://paimon.apache.org/docs/master/paimon_black.svg;clipPath=inset(0% 68% 0% 2%);" parent="1" vertex="1">
          <mxGeometry x="861.62" y="280" width="115.38" height="100" as="geometry" />
        </mxCell>
        <mxCell id="18" value="" style="shape=image;verticalLabelPosition=bottom;labelBackgroundColor=default;verticalAlign=top;aspect=fixed;imageAspect=0;image=http://localhost:8081/assets/images/flink.svg;fontStyle=1" parent="1" vertex="1">
          <mxGeometry x="670.1600000000001" y="340" width="49.67" height="50" as="geometry" />
        </mxCell>
        <mxCell id="24" value="" style="shape=image;verticalLabelPosition=bottom;labelBackgroundColor=default;verticalAlign=top;aspect=fixed;imageAspect=0;image=https://logowik.com/content/uploads/images/scala3486.jpg;clipPath=inset(10% 30.33% 8.67% 28.67%);" parent="1" vertex="1">
          <mxGeometry x="1066.46" y="332" width="51.08196721311475" height="76" as="geometry" />
        </mxCell>
        <mxCell id="25" value="" style="aspect=fixed;html=1;points=[];align=center;image;fontSize=12;image=img/lib/azure2/analytics/Stream_Analytics_Jobs.svg;rounded=0;shadow=0;glass=1;sketch=0;fontColor=#E6E6E6;fillColor=#6AD9EE;" parent="1" vertex="1">
          <mxGeometry x="58.75" y="436" width="68" height="57.99999999999999" as="geometry" />
        </mxCell>
        <mxCell id="30" value="" style="shape=image;verticalLabelPosition=bottom;labelBackgroundColor=default;verticalAlign=top;aspect=fixed;imageAspect=0;image=https://www.mysql.com/common/logos/logo-mysql-170x115.png;" parent="1" vertex="1">
          <mxGeometry x="41.35" y="200.5" width="102.79" height="69.5" as="geometry" />
        </mxCell>
        <mxCell id="17" value="" style="shape=image;verticalLabelPosition=bottom;labelBackgroundColor=default;verticalAlign=top;aspect=fixed;imageAspect=0;image=http://localhost:8081/assets/images/flink.svg;fontStyle=1" parent="1" vertex="1">
          <mxGeometry x="211" y="420" width="49.67" height="50" as="geometry" />
        </mxCell>
        <mxCell id="uCl5lqGbsIrDTOR7yEgk-32" value="" style="shape=image;verticalLabelPosition=bottom;labelBackgroundColor=default;verticalAlign=top;aspect=fixed;imageAspect=0;image=https://cdn.icon-icons.com/icons2/2699/PNG/512/apache_flink_logo_icon_168620.png;" vertex="1" parent="1">
          <mxGeometry x="202" y="411" width="76" height="76" as="geometry" />
        </mxCell>
        <mxCell id="uCl5lqGbsIrDTOR7yEgk-33" value="" style="shape=image;verticalLabelPosition=bottom;labelBackgroundColor=default;verticalAlign=top;aspect=fixed;imageAspect=0;image=https://cdn.icon-icons.com/icons2/2699/PNG/512/apache_flink_logo_icon_168620.png;" vertex="1" parent="1">
          <mxGeometry x="659" y="319" width="76" height="76" as="geometry" />
        </mxCell>
      </root>
    </mxGraphModel>
  </diagram>
</mxfile>
